<?xml version="1.0" encoding="UTF-8" standalone="no"?>
<svg
   xmlns:dc="http://purl.org/dc/elements/1.1/"
   xmlns:cc="http://creativecommons.org/ns#"
   xmlns:rdf="http://www.w3.org/1999/02/22-rdf-syntax-ns#"
   xmlns:svg="http://www.w3.org/2000/svg"
   xmlns="http://www.w3.org/2000/svg"
   xmlns:xlink="http://www.w3.org/1999/xlink"
   xmlns:sodipodi="http://sodipodi.sourceforge.net/DTD/sodipodi-0.dtd"
   xmlns:inkscape="http://www.inkscape.org/namespaces/inkscape"
   width="482pt"
   height="402pt"
   viewBox="0 0 482 402"
   version="1.1"
   id="svg2"
   inkscape:version="0.48.5 r10040"
   sodipodi:docname="seamcarving.svg"
   inkscape:export-filename="/mnt/data/home/tinloaf/src/debvis/software/ausarbeitung/figures/seamcarving.png"
   inkscape:export-xdpi="382.72299"
   inkscape:export-ydpi="382.72299">
  <metadata
     id="metadata24">
    <rdf:RDF>
      <cc:Work
         rdf:about="">
        <dc:format>image/svg+xml</dc:format>
        <dc:type
           rdf:resource="http://purl.org/dc/dcmitype/StillImage" />
        <dc:title></dc:title>
      </cc:Work>
    </rdf:RDF>
  </metadata>
  <sodipodi:namedview
     pagecolor="#ffffff"
     bordercolor="#666666"
     borderopacity="1"
     objecttolerance="10"
     gridtolerance="10"
     guidetolerance="10"
     inkscape:pageopacity="0"
     inkscape:pageshadow="2"
     inkscape:window-width="1340"
     inkscape:window-height="1177"
     id="namedview22"
     showgrid="false"
     inkscape:zoom="1.42"
     inkscape:cx="22.819935"
     inkscape:cy="235.04603"
     inkscape:window-x="0"
     inkscape:window-y="19"
     inkscape:window-maximized="0"
     inkscape:current-layer="surface1" />
  <defs
     id="defs4">
    <radialGradient
       id="radial0"
       gradientUnits="userSpaceOnUse"
       cx="0"
       cy="0"
       fx="0"
       fy="0"
       r="200"
       gradientTransform="matrix(1,0,0,-1,280.6,200.7)">
      <stop
         offset="0"
         style="stop-color:#ff0000;stop-opacity:1;"
         id="stop9" />
      <stop
         offset="1"
         style="stop-color:#ffffff;stop-opacity:0;"
         id="stop11" />
    </radialGradient>
    <radialGradient
       inkscape:collect="always"
       xlink:href="#radial0"
       id="radialGradient3759"
       gradientUnits="userSpaceOnUse"
       gradientTransform="matrix(1,0,0,-1,55.772414,264.83792)"
       cx="0"
       cy="0"
       fx="0"
       fy="0"
       r="200" />
    <radialGradient
       inkscape:collect="always"
       xlink:href="#radial0"
       id="radialGradient3763"
       gradientUnits="userSpaceOnUse"
       gradientTransform="matrix(1,0,0,-1,164.04827,356.56206)"
       cx="0"
       cy="0"
       fx="0"
       fy="0"
       r="200" />
    <radialGradient
       inkscape:collect="always"
       xlink:href="#radial0"
       id="radialGradient2996"
       gradientUnits="userSpaceOnUse"
       gradientTransform="matrix(1,0,0,-1,276.61748,203.99285)"
       cx="0"
       cy="0"
       fx="0"
       fy="0"
       r="200" />
  </defs>
  <g
     id="surface1"
     inkscape:transform-center-x="114.97881">
    <path
       inkscape:connector-curvature="0"
       id="path3757"
       d="m 255.77397,264.83714 c 0,-110.45703 -89.54297,-199.999991 -199.999996,-199.999991 -110.45703,0 -200.000004,89.542961 -200.000004,199.999991 0,110.45703 89.542974,200 200.000004,200 110.457026,0 199.999996,-89.54297 199.999996,-200 z"
       style="fill:url(#radialGradient3759);fill-rule:evenodd;stroke:none" />
    <path
       style="fill:url(#radialGradient3763);fill-rule:evenodd;stroke:none"
       d="m 364.04983,356.56128 c 0,-110.45703 -89.54297,-199.99999 -200,-199.99999 -110.457023,0 -199.999995,89.54296 -199.999995,199.99999 0,110.45703 89.542972,200 199.999995,200 110.45703,0 200,-89.54297 200,-200 z"
       id="path3761"
       inkscape:connector-curvature="0" />
    <path
       style="fill:url(#radialGradient2996);fill-rule:evenodd;stroke:none"
       d="m 476.61904,203.99207 c 0,-110.457031 -89.54297,-199.9999915 -200,-199.9999915 -110.45703,0 -200,89.5429605 -200,199.9999915 0,110.45703 89.54297,200 200,200 110.45703,0 200,-89.54297 200,-200 z"
       id="path2994"
       inkscape:connector-curvature="0" />
    <path
       style="fill:none;fill-rule:evenodd;stroke:none"
       d="m 479.22225,204.83716 c 0,-110.457041 -89.54297,-200.0000097 -200,-200.0000097 -110.45704,0 -199.999999,89.5429687 -199.999999,200.0000097 0,110.45703 89.542959,200 199.999999,200 110.45703,0 200,-89.54297 200,-200 z m -310.94639,-95.25095 0,63.44827 15.86207,0 0,48.96552 11.03448,0 0,17.24138 9.65518,0 0,9.65517 13.10344,0 0,12.41379 33.79311,0 0,15.86207 33.7931,0 0,21.37931 39.31035,0 0,100"
       id="path14"
       inkscape:connector-curvature="0" />
    <path
       style="fill:none;stroke:#000000;stroke-width:1.20000005;stroke-linecap:butt;stroke-linejoin:round;stroke-miterlimit:10;stroke-opacity:1"
       d="m 80.001563,736.00078 0,-48 95.999997,0 0,48 z"
       transform="matrix(1,0,0,-1,-79.4,976.7)"
       id="path16"
       inkscape:connector-curvature="0" />
    <path
       style="fill:none;stroke:#000000;stroke-width:1.20000005;stroke-linecap:butt;stroke-linejoin:round;stroke-miterlimit:10;stroke-opacity:1"
       d="m 176.00156,656.00078 0,-80 112,0 0,80 z"
       transform="matrix(1,0,0,-1,-79.4,976.7)"
       id="path18"
       inkscape:connector-curvature="0" />
    <path
       style="fill:none;stroke:#000000;stroke-width:1.20000005;stroke-linecap:butt;stroke-linejoin:round;stroke-miterlimit:10;stroke-opacity:1"
       d="m 304.00156,800.00078 0,-48 112,0 0,48 z"
       transform="matrix(1,0,0,-1,-79.4,976.7)"
       id="path20"
       inkscape:connector-curvature="0" />
    <path
       id="path3771"
       style="fill:none;stroke:#000000;stroke-width:0.80000001px;stroke-linecap:butt;stroke-linejoin:miter;stroke-opacity:1"
       d="m 162.55465,160.66925 0,96.55173 13.10344,0 0,15.17242 15.86207,0 0,19.31034 34.48276,0 0,21.37931 46.89655,0 26.2069,0 0,94.39534 m -136.85284,-243.22487 0,-28.41186 24.43905,0 0,96.55173 13.10345,0 0,15.17242 15.86206,0 0,19.31034 34.48276,0 0,21.37931 46.89655,0 26.2069,0 0,118.62069 -24.65275,0"
       inkscape:connector-curvature="0" />
  </g>
</svg>
